<?xml version="1.0" encoding="UTF-8"?>
<svg version="1.1" xmlns="http://www.w3.org/2000/svg" width="180" height="108">
<path d="M0 0 C59.4 0 118.8 0 180 0 C180 35.64 180 71.28 180 108 C120.6 108 61.2 108 0 108 C0 72.36 0 36.72 0 0 Z " fill="#FEFEFE" transform="translate(0,0)"/>
<path d="M0 0 C0 1.32 0 2.64 0 4 C1.65 4 3.3 4 5 4 C5.0825 4.61875 5.165 5.2375 5.25 5.875 C5.81258459 8.18437567 5.81258459 8.18437567 8.0625 9.25 C9.0215625 9.62125 9.0215625 9.62125 10 10 C10.36103152 16.3782235 10.36103152 16.3782235 8.875 18.9375 C6.11019567 20.50422245 4.11811483 20.38976435 1 20 C-0.875 18.5 -0.875 18.5 -2 17 C-2.53625 17.495 -3.0725 17.99 -3.625 18.5 C-6.65118137 20.41127245 -8.47704517 20.37478243 -12 20 C-12.99 19.34 -13.98 18.68 -15 18 C-15.99 19.32 -16.98 20.64 -18 22 C-20.44135379 21.77177997 -22.87553531 21.51853605 -25.3125 21.25 C-26.34793945 21.1571875 -26.34793945 21.1571875 -27.40429688 21.0625 C-30.6272792 20.68882089 -32.58329244 20.40173603 -34.95703125 18.11328125 C-36.38671858 15.21642415 -36.40678982 13.18652025 -36 10 C-35 8.125 -35 8.125 -33 7 C-30.28121737 6.75868793 -27.7407889 6.8652071 -25 7 C-24.34 5.35 -23.68 3.7 -23 2 C-22.34 2.33 -21.68 2.66 -21 3 C-21.33 3.99 -21.66 4.98 -22 6 C-20.68 6 -19.36 6 -18 6 C-17.67 5.34 -17.34 4.68 -17 4 C-17 4.66 -17 5.32 -17 6 C-14.36 6 -11.72 6 -9 6 C-8.67 5.34 -8.34 4.68 -8 4 C-3.04 0 -3.04 0 0 0 Z " fill="#F3C4C1" transform="translate(104,48)"/>
<path d="M0 0 C1.32 0 2.64 0 4 0 C4.33 1.98 4.66 3.96 5 6 C5.969375 5.979375 6.93875 5.95875 7.9375 5.9375 C11 6 11 6 12 7 C12.07226502 8.85287502 12.0838122 10.70833878 12.0625 12.5625 C12.05347656 13.57441406 12.04445312 14.58632812 12.03515625 15.62890625 C12.02355469 16.41136719 12.01195312 17.19382812 12 18 C10.68 18 9.36 18 8 18 C8 15.03 8 12.06 8 9 C6.68 9 5.36 9 4 9 C4 11.97 4 14.94 4 18 C-1.5686771 18.19463337 -5.81459191 18.1998701 -11 16 C-11.99 16.66 -12.98 17.32 -14 18 C-16.79523674 18.34940459 -18.3648354 18.37233787 -20.8125 16.9375 C-22.67036623 13.90624457 -22.37133265 11.46577141 -22 8 C-21 6.0625 -21 6.0625 -19 5 C-16.28117977 4.76404716 -13.74042978 4.86522477 -11 5 C-11 4.34 -11 3.68 -11 3 C-8.64561267 1.57055055 -7.51967567 0.91338739 -4.75 1.375 C-4.1725 1.58125 -3.595 1.7875 -3 2 C-3 2.66 -3 3.32 -3 4 C-2.34 4 -1.68 4 -1 4 C-0.67 2.68 -0.34 1.36 0 0 Z " fill="#F9CFCD" transform="translate(55,50)"/>
<path d="M0 0 C0.0246501 5.10863896 0.04283607 10.21724359 0.05493164 15.32592773 C0.05997204 17.06519168 0.0668043 18.80445136 0.07543945 20.54370117 C0.08751792 23.03825937 0.09323108 25.53276173 0.09765625 28.02734375 C0.10281754 28.80963852 0.10797882 29.59193329 0.11329651 30.39793396 C0.11349226 32.26567114 0.06199694 34.13329204 0 36 C-1 37 -1 37 -4.5625 37.0625 C-5.696875 37.041875 -6.83125 37.02125 -8 37 C-8.12358454 32.21290532 -8.21432771 27.42673819 -8.2746582 22.63842773 C-8.29980568 21.0096825 -8.33392878 19.38105015 -8.37719727 17.75268555 C-8.4378455 15.41166366 -8.46620476 13.07213269 -8.48828125 10.73046875 C-8.51408768 10.00224411 -8.5398941 9.27401947 -8.56648254 8.52372742 C-8.56762695 6.46166992 -8.56762695 6.46166992 -8 3 C-5.14363155 0.58234022 -3.74427823 0 0 0 Z " fill="#CD1517" transform="translate(165,31)"/>
<path d="M0 0 C0 1.32 0 2.64 0 4 C1.65 4 3.3 4 5 4 C5.0825 4.61875 5.165 5.2375 5.25 5.875 C5.81258459 8.18437567 5.81258459 8.18437567 8.0625 9.25 C9.0215625 9.62125 9.0215625 9.62125 10 10 C10.36103152 16.3782235 10.36103152 16.3782235 8.875 18.9375 C6.11019567 20.50422245 4.11811483 20.38976435 1 20 C-0.875 18.5 -0.875 18.5 -2 17 C-2.66 17.33 -3.32 17.66 -4 18 C-4 16.35 -4 14.7 -4 13 C-6.97 12.505 -6.97 12.505 -10 12 C-10 11.34 -10 10.68 -10 10 C-7.03 10.495 -7.03 10.495 -4 11 C-4.66 10.01 -5.32 9.02 -6 8 C-8.64 8.33 -11.28 8.66 -14 9 C-14 8.34 -14 7.68 -14 7 C-16.97 7 -19.94 7 -23 7 C-23 8.65 -23 10.3 -23 12 C-24.32 10.35 -25.64 8.7 -27 7 C-26.34 7 -25.68 7 -25 7 C-24.34 5.35 -23.68 3.7 -23 2 C-22.34 2.33 -21.68 2.66 -21 3 C-21.33 3.99 -21.66 4.98 -22 6 C-20.68 6 -19.36 6 -18 6 C-17.67 5.34 -17.34 4.68 -17 4 C-17 4.66 -17 5.32 -17 6 C-14.36 6 -11.72 6 -9 6 C-8.67 5.34 -8.34 4.68 -8 4 C-3.04 0 -3.04 0 0 0 Z " fill="#F9F3EF" transform="translate(104,48)"/>
<path d="M0 0 C0.02886338 4.47915328 0.04675187 8.95828291 0.0625 13.4375 C0.07087891 14.71689453 0.07925781 15.99628906 0.08789062 17.31445312 C0.09111328 18.52939453 0.09433594 19.74433594 0.09765625 20.99609375 C0.10289307 22.12200928 0.10812988 23.2479248 0.11352539 24.40795898 C0 27 0 27 -1 28 C-3.64 28 -6.28 28 -9 28 C-9 20.08 -9 12.16 -9 4 C-2 0 -2 0 0 0 Z " fill="#D01418" transform="translate(154,40)"/>
<path d="M0 0 C0.33 0 0.66 0 1 0 C1 12.87 1 25.74 1 39 C-3.29 38.67 -7.58 38.34 -12 38 C-11.67 28.43 -11.34 18.86 -11 9 C-14.96 10.98 -14.96 10.98 -19 13 C-19.33 12.01 -19.66 11.02 -20 10 C-17.03 9.01 -14.06 8.02 -11 7 C-10.67 5.35 -10.34 3.7 -10 2 C-8.68 2.33 -7.36 2.66 -6 3 C-6.66 3 -7.32 3 -8 3 C-8 14.22 -8 25.44 -8 37 C-4.535 36.505 -4.535 36.505 -1 36 C-0.67 24.12 -0.34 12.24 0 0 Z " fill="#F7BDBE" transform="translate(165,31)"/>
<path d="M0 0 C2.81288705 0.14019692 5.62516885 0.28687955 8.4375 0.4375 C9.23994141 0.47681641 10.04238281 0.51613281 10.86914062 0.55664062 C16.88671875 0.88671875 16.88671875 0.88671875 18 2 C18.07226502 3.85287502 18.0838122 5.70833878 18.0625 7.5625 C18.05347656 8.57441406 18.04445313 9.58632812 18.03515625 10.62890625 C18.02355469 11.41136719 18.01195313 12.19382812 18 13 C16.68 13 15.36 13 14 13 C14 10.03 14 7.06 14 4 C13.01 4 12.02 4 11 4 C11 6.97 11 9.94 11 13 C9.68 13 8.36 13 7 13 C7 10.03 7 7.06 7 4 C6.01 4 5.02 4 4 4 C4 6.97 4 9.94 4 13 C2.68 13 1.36 13 0 13 C0 8.71 0 4.42 0 0 Z " fill="#A72D2D" transform="translate(13,55)"/>
<path d="M0 0 C0.02684312 2.81256281 0.04676188 5.62487241 0.0625 8.4375 C0.07087891 9.23994141 0.07925781 10.04238281 0.08789062 10.86914062 C0.0965143 12.91295221 0.0522815 14.95683902 0 17 C-1 18 -1 18 -2.84765625 18.09765625 C-4.8984375 18.06510417 -6.94921875 18.03255208 -9 18 C-9.13501894 15.56065775 -9.23403897 13.12875896 -9.3125 10.6875 C-9.35439453 9.99720703 -9.39628906 9.30691406 -9.43945312 8.59570312 C-9.48828125 6.57421875 -9.48828125 6.57421875 -9 3 C-5.78135893 0.19130633 -4.32764111 0 0 0 Z " fill="#B03D3F" transform="translate(143,50)"/>
<path d="M0 0 C2 2 2 2 2.3125 5.4375 C2 9 2 9 0.875 10.9375 C-1.88980433 12.50422245 -3.88188517 12.38976435 -7 12 C-8.875 10.9375 -8.875 10.9375 -10 9 C-10.36841966 5.56141649 -10.58367385 3.09868019 -8.9375 0 C-5.80557344 -1.61647822 -3.32814714 -0.78665296 0 0 Z " fill="#B52C29" transform="translate(112,56)"/>
<path d="M0 0 C2 2 2 2 2.375 5.4375 C2 9 2 9 0.3125 10.9375 C-2.41818887 12.19214083 -4.02932151 12.45702746 -7 12 C-8.8125 10.9375 -8.8125 10.9375 -10 9 C-10.36841966 5.56141649 -10.58367385 3.09868019 -8.9375 0 C-5.80557344 -1.61647822 -3.32814714 -0.78665296 0 0 Z " fill="#AD3436" transform="translate(43,56)"/>
<path d="M0 0 C1.32 0 2.64 0 4 0 C4.33 1.98 4.66 3.96 5 6 C5.969375 5.979375 6.93875 5.95875 7.9375 5.9375 C11 6 11 6 12 7 C12.07226502 8.85287502 12.0838122 10.70833878 12.0625 12.5625 C12.05347656 13.57441406 12.04445313 14.58632812 12.03515625 15.62890625 C12.02355469 16.41136719 12.01195313 17.19382812 12 18 C10.68 18 9.36 18 8 18 C8 15.03 8 12.06 8 9 C6.68 9 5.36 9 4 9 C4 11.97 4 14.94 4 18 C2.68 18 1.36 18 0 18 C0 12.06 0 6.12 0 0 Z " fill="#A24042" transform="translate(55,50)"/>
<path d="M0 0 C1.60875 -0.04125 3.2175 -0.0825 4.875 -0.125 C5.77992187 -0.14820313 6.68484375 -0.17140625 7.6171875 -0.1953125 C10 0 10 0 12 2 C12.1953125 4.6015625 12.1953125 4.6015625 12.125 7.625 C12.10695313 8.62789062 12.08890625 9.63078125 12.0703125 10.6640625 C12.03550781 11.82035156 12.03550781 11.82035156 12 13 C10.68 13 9.36 13 8 13 C8 10.03 8 7.06 8 4 C7.01 4 6.02 4 5 4 C5 6.97 5 9.94 5 13 C3.35 13 1.7 13 0 13 C0 8.71 0 4.42 0 0 Z " fill="#CF6767" transform="translate(115,55)"/>
<path d="M0 0 C1.875 1.25 1.875 1.25 3 3 C3 4.32 3 5.64 3 7 C0.36 7 -2.28 7 -5 7 C-4.67 7.66 -4.34 8.32 -4 9 C-1.69 9 0.62 9 3 9 C2 12 2 12 0 13 C-2.9375 13.3125 -2.9375 13.3125 -6 13 C-8.59814888 10.74827097 -8.95716454 9.34982295 -9.375 5.9375 C-9 3 -9 3 -7.875 1.125 C-5.11909116 -0.52854531 -3.14924548 -0.39365568 0 0 Z " fill="#BB2E2C" transform="translate(77,55)"/>
<path d="M0 0 C0.0246501 5.10863896 0.04283607 10.21724359 0.05493164 15.32592773 C0.05997204 17.06519168 0.0668043 18.80445136 0.07543945 20.54370117 C0.08751792 23.03825937 0.09323108 25.53276173 0.09765625 28.02734375 C0.10281754 28.80963852 0.10797882 29.59193329 0.11329651 30.39793396 C0.11349226 32.26567114 0.06199694 34.13329204 0 36 C-1 37 -1 37 -4.5625 37.0625 C-5.696875 37.041875 -6.83125 37.02125 -8 37 C-8.12358454 32.21290532 -8.21432771 27.42673819 -8.2746582 22.63842773 C-8.29980568 21.0096825 -8.33392878 19.38105015 -8.37719727 17.75268555 C-8.4378455 15.41166366 -8.46620476 13.07213269 -8.48828125 10.73046875 C-8.51408768 10.00224411 -8.5398941 9.27401947 -8.56648254 8.52372742 C-8.56762695 6.46166992 -8.56762695 6.46166992 -8 3 C-5.14363155 0.58234022 -3.74427823 0 0 0 Z M-3 3 C-6.11785113 3.64644661 -6.11785113 3.64644661 -7 6 C-7.08559118 8.17824961 -7.10713412 10.35915255 -7.09765625 12.5390625 C-7.09443359 13.84101562 -7.09121094 15.14296875 -7.08789062 16.484375 C-7.07953466 17.86458399 -7.07106971 19.24479232 -7.0625 20.625 C-7.05748501 22.01301926 -7.0529221 23.40104022 -7.04882812 24.7890625 C-7.03700976 28.19275132 -7.02053434 31.59635439 -7 35 C-5.02 35 -3.04 35 -1 35 C-1 24.77 -1 14.54 -1 4 C-1.66 3.67 -2.32 3.34 -3 3 Z " fill="#9E2427" transform="translate(165,31)"/>
<path d="M0 0 C0.33 0 0.66 0 1 0 C1 1.65 1 3.3 1 5 C2.60875 4.690625 2.60875 4.690625 4.25 4.375 C7.87619096 4.0123809 9.08291076 4.01637931 12 6 C11.34 6.66 10.68 7.32 10 8 C9.65638394 11.95158471 9.91098803 14.60535554 12 18 C8.15227951 19.86889281 6.11624675 20.00124921 2 19 C1.34 19.33 0.68 19.66 0 20 C-2.125 19.0625 -2.125 19.0625 -4 18 C-2.68 18 -1.36 18 0 18 C0 15.03 0 12.06 0 9 C1.32 9 2.64 9 4 9 C4 11.97 4 14.94 4 18 C5.32 18 6.64 18 8 18 C7.67 14.37 7.34 10.74 7 7 C4.69 7 2.38 7 0 7 C0 4.69 0 2.38 0 0 Z " fill="#FBD6D1" transform="translate(59,50)"/>
<path d="M0 0 C0.66 1.32 1.32 2.64 2 4 C-0.97 3.505 -0.97 3.505 -4 3 C-4 3.66 -4 4.32 -4 5 C-1.03 5.495 -1.03 5.495 2 6 C2 7.98 2 9.96 2 12 C-0.70879335 13.35439668 -3.00933268 13.06501451 -6 13 C-6.66 11.68 -7.32 10.36 -8 9 C-5.69 9.33 -3.38 9.66 -1 10 C-1 9.34 -1 8.68 -1 8 C-3.97 7.505 -3.97 7.505 -7 7 C-7.6875 5.1875 -7.6875 5.1875 -8 3 C-5.85915306 -0.33020635 -3.75910189 -0.30479204 0 0 Z " fill="#B42026" transform="translate(98,55)"/>
<path d="M0 0 C0.33 0 0.66 0 1 0 C1 12.87 1 25.74 1 39 C-3.29 38.67 -7.58 38.34 -12 38 C-11.67 37.01 -11.34 36.02 -11 35 C-10.85110253 33.15533558 -10.7520899 31.30642725 -10.68359375 29.45703125 C-10.64169922 28.38388672 -10.59980469 27.31074219 -10.55664062 26.20507812 C-10.49766602 24.52575195 -10.49766602 24.52575195 -10.4375 22.8125 C-10.39431641 21.68134766 -10.35113281 20.55019531 -10.30664062 19.38476562 C-10.20050901 16.58996646 -10.09845615 13.79507838 -10 11 C-9.67 11 -9.34 11 -9 11 C-9 19.58 -9 28.16 -9 37 C-6.36 36.67 -3.72 36.34 -1 36 C-0.67 24.12 -0.34 12.24 0 0 Z " fill="#F7CFCD" transform="translate(165,31)"/>
<path d="M0 0 C0.02886338 4.47915328 0.04675187 8.95828291 0.0625 13.4375 C0.07087891 14.71689453 0.07925781 15.99628906 0.08789062 17.31445312 C0.09111328 18.52939453 0.09433594 19.74433594 0.09765625 20.99609375 C0.10289307 22.12200928 0.10812988 23.2479248 0.11352539 24.40795898 C0 27 0 27 -1 28 C-3.64 28 -6.28 28 -9 28 C-9 20.08 -9 12.16 -9 4 C-8.67 4 -8.34 4 -8 4 C-8 11.26 -8 18.52 -8 26 C-6.02 26 -4.04 26 -2 26 C-1.67 18.08 -1.34 10.16 -1 2 C-1.99 1.67 -2.98 1.34 -4 1 C-2 0 -2 0 0 0 Z " fill="#B14C4B" transform="translate(154,40)"/>
<path d="M0 0 C0.99 0 1.98 0 3 0 C3 0.99 3 1.98 3 3 C3.66 3 4.32 3 5 3 C5 3.66 5 4.32 5 5 C4.34 5 3.68 5 3 5 C3 6.98 3 8.96 3 11 C3.66 11 4.32 11 5 11 C5 12.32 5 13.64 5 15 C0.125 14.125 0.125 14.125 -1 13 C-1.28671723 11.19570877 -1.50547961 9.38033998 -1.6875 7.5625 C-1.79449219 6.57378906 -1.90148438 5.58507813 -2.01171875 4.56640625 C-2 2 -2 2 0 0 Z " fill="#B0272A" transform="translate(48,53)"/>
<path d="M0 0 C1.32 0 2.64 0 4 0 C4 4.62 4 9.24 4 14 C2.35 14 0.7 14 -1 14 C-1.02694851 12.04174127 -1.04637218 10.08337774 -1.0625 8.125 C-1.07410156 7.03445312 -1.08570313 5.94390625 -1.09765625 4.8203125 C-1 2 -1 2 0 0 Z " fill="#CC1618" transform="translate(137,52)"/>
<path d="M0 0 C3.625 0.375 3.625 0.375 7 1 C7 1.99 7 2.98 7 4 C6.67 4 6.34 4 6 4 C5.34 5.98 4.68 7.96 4 10 C2.68 10 1.36 10 0 10 C-1.76462683 6.91190305 -2 5.76687864 -2 2 C-1.34 1.34 -0.68 0.68 0 0 Z " fill="#B73B3E" transform="translate(105,55)"/>
<path d="M0 0 C0.99 0 1.98 0 3 0 C4.06795656 5.57710648 3.82622671 10.39436958 3 16 C2.67 16 2.34 16 2 16 C1.67 12.37 1.34 8.74 1 5 C-2.66439084 4.26712183 -6.31352622 3.60012364 -10 3 C-10 6.63 -10 10.26 -10 14 C-10.99 14 -11.98 14 -13 14 C-12.67 13.67 -12.34 13.34 -12 13 C-11.49389093 8.2045846 -11.49389093 8.2045846 -13.5 4.0625 C-13.995 3.711875 -14.49 3.36125 -15 3 C-11.71480525 1.90493508 -9.26336585 1.90039392 -5.8125 1.9375 C-4.18248047 1.95103516 -4.18248047 1.95103516 -2.51953125 1.96484375 C-1.68808594 1.97644531 -0.85664062 1.98804688 0 2 C0 1.34 0 0.68 0 0 Z " fill="#FBDDD9" transform="translate(125,52)"/>
<path d="M0 0 C2.31 0 4.62 0 7 0 C7 0.99 7 1.98 7 3 C6.01 3.495 6.01 3.495 5 4 C4.53476937 5.89533342 4.53476937 5.89533342 4.375 8.0625 C4.189375 10.0115625 4.189375 10.0115625 4 12 C2.68 12 1.36 12 0 12 C0 8.04 0 4.08 0 0 Z " fill="#AB2C2D" transform="translate(82,56)"/>
<path d="M0 0 C4.875 0.875 4.875 0.875 6 2 C6.07226502 3.85287502 6.0838122 5.70833878 6.0625 7.5625 C6.05347656 8.57441406 6.04445313 9.58632812 6.03515625 10.62890625 C6.02355469 11.41136719 6.01195313 12.19382812 6 13 C4.68 13 3.36 13 2 13 C2 9.7 2 6.4 2 3 C1.01 2.67 0.02 2.34 -1 2 C-0.67 1.34 -0.34 0.68 0 0 Z " fill="#A84345" transform="translate(121,55)"/>
<path d="M0 0 C1.65 0 3.3 0 5 0 C5 6.93 5 13.86 5 21 C4.67 21 4.34 21 4 21 C3.67 15.06 3.34 9.12 3 3 C2.01 3 1.02 3 0 3 C-0.33 9.93 -0.66 16.86 -1 24 C-1.33 24 -1.66 24 -2 24 C-2.05787784 20.37506666 -2.0935542 16.75025143 -2.125 13.125 C-2.14175781 12.09246094 -2.15851563 11.05992188 -2.17578125 9.99609375 C-2.18222656 9.00996094 -2.18867188 8.02382813 -2.1953125 7.0078125 C-2.20578613 6.09660645 -2.21625977 5.18540039 -2.22705078 4.24658203 C-2 2 -2 2 0 0 Z " fill="#B21C1D" transform="translate(148,42)"/>
<path d="M0 0 C0.66 0.33 1.32 0.66 2 1 C1.67 1.99 1.34 2.98 1 4 C2.32 4 3.64 4 5 4 C5.33 3.34 5.66 2.68 6 2 C6 2.66 6 3.32 6 4 C9.63 4 13.26 4 17 4 C17 4.33 17 4.66 17 5 C14.36 5.66 11.72 6.32 9 7 C9 6.34 9 5.68 9 5 C6.03 5 3.06 5 0 5 C0 6.65 0 8.3 0 10 C-1.32 8.35 -2.64 6.7 -4 5 C-3.34 5 -2.68 5 -2 5 C-1.34 3.35 -0.68 1.7 0 0 Z " fill="#FBEAE5" transform="translate(81,50)"/>
<path d="M0 0 C1.32 0 2.64 0 4 0 C4 4.29 4 8.58 4 13 C3.34 13 2.68 13 2 13 C2 11.68 2 10.36 2 9 C1.34 9 0.68 9 0 9 C0 7.02 0 5.04 0 3 C0.66 3 1.32 3 2 3 C2 2.34 2 1.68 2 1 C1.34 0.67 0.68 0.34 0 0 Z " fill="#F7C4C2" transform="translate(51,55)"/>
<path d="M0 0 C1.91635217 -0.05423638 3.83314925 -0.09289963 5.75 -0.125 C7.35101563 -0.15980469 7.35101563 -0.15980469 8.984375 -0.1953125 C11.92470106 -0.00487687 13.52361878 0.47329896 16 2 C14.93651813 5.95007553 13.83836919 9.32326162 12 13 C11.67 9.37 11.34 5.74 11 2 C9.9275 2.04125 8.855 2.0825 7.75 2.125 C4.22276513 2.0074255 2.938927 1.65152093 0 0 Z " fill="#EFACA9" transform="translate(19,55)"/>
<path d="M0 0 C0.66 1.32 1.32 2.64 2 4 C-0.64 3.67 -3.28 3.34 -6 3 C-5.67 4.32 -5.34 5.64 -5 7 C-5.99 6.67 -6.98 6.34 -8 6 C-7.625 3.5625 -7.625 3.5625 -7 1 C-4.53721199 -0.231394 -2.7204945 -0.07159196 0 0 Z " fill="#AD3D40" transform="translate(98,55)"/>
<path d="M0 0 C0.515625 0.515625 1.03125 1.03125 1.5625 1.5625 C4.99819483 3.588679 7.19802931 2.84488238 11 2 C11.66 1.67 12.32 1.34 13 1 C12.875 2.875 12.875 2.875 12 5 C9.3125 6.4375 9.3125 6.4375 6 7 C2.625 5.625 2.625 5.625 0 4 C0 2.68 0 1.36 0 0 Z " fill="#FAE3DE" transform="translate(32,64)"/>
<path d="M0 0 C0.99 0 1.98 0 3 0 C3.02689216 1.47906892 3.04634621 2.95827483 3.0625 4.4375 C3.07410156 5.26121094 3.08570313 6.08492188 3.09765625 6.93359375 C3 9 3 9 2 10 C0.00041636 10.04080783 -2.00045254 10.04254356 -4 10 C-2.68 9.67 -1.36 9.34 0 9 C0 6.03 0 3.06 0 0 Z " fill="#FDE0DF" transform="translate(24,59)"/>
<path d="M0 0 C0.99 0.33 1.98 0.66 3 1 C3 4.3 3 7.6 3 11 C2.01 11 1.02 11 0 11 C0 7.37 0 3.74 0 0 Z " fill="#AE1E27" transform="translate(63,57)"/>
<path d="M0 0 C0.66 0 1.32 0 2 0 C2.82622671 5.60563042 3.06795656 10.42289352 2 16 C1.34 15.67 0.68 15.34 0 15 C0 10.05 0 5.1 0 0 Z " fill="#B51B22" transform="translate(56,51)"/>
<path d="M0 0 C0.99 0 1.98 0 3 0 C3 3.63 3 7.26 3 11 C2.01 11 1.02 11 0 11 C0 7.37 0 3.74 0 0 Z " fill="#A82425" transform="translate(13,56)"/>
<path d="M0 0 C0.99 0.33 1.98 0.66 3 1 C2.34 1 1.68 1 1 1 C1.66 1.66 2.32 2.32 3 3 C3.1953125 5.1640625 3.1953125 5.1640625 3.125 7.625 C3.10695313 8.44226563 3.08890625 9.25953125 3.0703125 10.1015625 C3.04710938 10.72804688 3.02390625 11.35453125 3 12 C2.01 12 1.02 12 0 12 C0 8.04 0 4.08 0 0 Z " fill="#A81D22" transform="translate(116,56)"/>
<path d="M0 0 C0.33 0 0.66 0 1 0 C1 1.65 1 3.3 1 5 C2.60875 4.690625 2.60875 4.690625 4.25 4.375 C7.87619096 4.0123809 9.08291076 4.01637931 12 6 C10.68 6.99 9.36 7.98 8 9 C7.67 8.34 7.34 7.68 7 7 C4.69 7 2.38 7 0 7 C0 4.69 0 2.38 0 0 Z " fill="#F6CECC" transform="translate(59,50)"/>
<path d="M0 0 C6.75 1.625 6.75 1.625 9 5 C5.62182575 5.84454356 3.32534757 6.10844919 0 5 C0 3.35 0 1.7 0 0 Z " fill="#F9F0ED" transform="translate(13,50)"/>
<path d="M0 0 C6.15234375 -0.09765625 6.15234375 -0.09765625 8 0 C9 1 9 1 9.09765625 3.50390625 C9.08605469 4.51324219 9.07445313 5.52257813 9.0625 6.5625 C9.05347656 7.57441406 9.04445313 8.58632812 9.03515625 9.62890625 C9.02355469 10.41136719 9.01195313 11.19382812 9 12 C8.67 12 8.34 12 8 12 C7.95101562 11.28972656 7.90203125 10.57945313 7.8515625 9.84765625 C7.77679688 8.92855469 7.70203125 8.00945312 7.625 7.0625 C7.52058594 5.68771484 7.52058594 5.68771484 7.4140625 4.28515625 C7.27742188 3.53105469 7.14078125 2.77695312 7 2 C6.34 1.67 5.68 1.34 5 1 C5 1.66 5 2.32 5 3 C3.35 3 1.7 3 0 3 C0 2.01 0 1.02 0 0 Z " fill="#B7484C" transform="translate(58,56)"/>
<path d="M0 0 C0.94875 0.04125 1.8975 0.0825 2.875 0.125 C3.205 0.785 3.535 1.445 3.875 2.125 C2.885 2.62 2.885 2.62 1.875 3.125 C1.875 3.785 1.875 4.445 1.875 5.125 C0.555 5.125 -0.765 5.125 -2.125 5.125 C-2.125 4.465 -2.125 3.805 -2.125 3.125 C-3.115 2.795 -4.105 2.465 -5.125 2.125 C-3.125 0.125 -3.125 0.125 0 0 Z " fill="#C56565" transform="translate(74.125,54.875)"/>
<path d="M0 0 C0.33 0 0.66 0 1 0 C1 1.98 1 3.96 1 6 C2.65 6 4.3 6 6 6 C6 7.32 6 8.64 6 10 C1.125 9.125 1.125 9.125 0 8 C-0.14115161 5.32941149 -0.04247107 2.67567762 0 0 Z " fill="#A8393B" transform="translate(47,58)"/>
<path d="M0 0 C0.99 0 1.98 0 3 0 C3 2.97 3 5.94 3 9 C2.01 9 1.02 9 0 9 C0 6.03 0 3.06 0 0 Z " fill="#FEDDDD" transform="translate(17,59)"/>
<path d="M0 0 C-0.928125 0.3403125 -0.928125 0.3403125 -1.875 0.6875 C-4.61410209 2.37929835 -5.05024472 3.99244161 -6 7 C-6.66 7 -7.32 7 -8 7 C-8 4.69 -8 2.38 -8 0 C-4.94736336 -0.98120464 -3.05263664 -0.98120464 0 0 Z " fill="#AE2526" transform="translate(41,58)"/>
<path d="M0 0 C0 1.98 0 3.96 0 6 C-0.99 5.34 -1.98 4.68 -3 4 C-3.99 4 -4.98 4 -6 4 C-6 4.66 -6 5.32 -6 6 C-6.66 6 -7.32 6 -8 6 C-8 5.01 -8 4.02 -8 3 C-5.11165997 0.89229241 -3.61537605 0 0 0 Z " fill="#A83636" transform="translate(165,31)"/>
<path d="M0 0 C0.99 0 1.98 0 3 0 C3 1.65 3 3.3 3 5 C4.65 5.33 6.3 5.66 8 6 C8 6.33 8 6.66 8 7 C5.125 7.125 5.125 7.125 2 7 C0 5 0 5 -0.125 2.375 C-0.08375 1.59125 -0.0425 0.8075 0 0 Z " fill="#A71E22" transform="translate(102,60)"/>
<path d="M0 0 C0.99 0 1.98 0 3 0 C3 2.97 3 5.94 3 9 C2.01 9 1.02 9 0 9 C0 6.03 0 3.06 0 0 Z " fill="#FEE4E1" transform="translate(120,59)"/>
<path d="M0 0 C0.66 0.33 1.32 0.66 2 1 C2 3.64 2 6.28 2 9 C1.34 9 0.68 9 0 9 C-0.33 9.66 -0.66 10.32 -1 11 C-1.0270043 9.54176788 -1.04639787 8.08339325 -1.0625 6.625 C-1.07410156 5.81289063 -1.08570312 5.00078125 -1.09765625 4.1640625 C-1 2 -1 2 0 0 Z " fill="#BD3233" transform="translate(28,57)"/>
<path d="M0 0 C-1.125 1.5 -1.125 1.5 -3 3 C-6.1875 3.1875 -6.1875 3.1875 -9 3 C-8.67 2.01 -8.34 1.02 -8 0 C-5.04215769 -1.22393475 -3.00272755 -0.96516243 0 0 Z " fill="#A6383D" transform="translate(80,65)"/>
<path d="M0 0 C2.375 0.3125 2.375 0.3125 5 1 C5.66 1.99 6.32 2.98 7 4 C6.01 4 5.02 4 4 4 C4 6.97 4 9.94 4 13 C2.68 12.67 1.36 12.34 0 12 C0.99 12 1.98 12 3 12 C3 9.36 3 6.72 3 4 C2.34 3.67 1.68 3.34 1 3 C1.66 3 2.32 3 3 3 C3 2.34 3 1.68 3 1 C2.01 0.67 1.02 0.34 0 0 Z " fill="#B4514E" transform="translate(13,55)"/>
<path d="M0 0 C0.99 0.33 1.98 0.66 3 1 C3 2.65 3 4.3 3 6 C1.68 6 0.36 6 -1 6 C-1.042721 4.33388095 -1.04063832 2.66617115 -1 1 C-0.67 0.67 -0.34 0.34 0 0 Z " fill="#FACECD" transform="translate(107,58)"/>
<path d="M0 0 C2.475 0.99 2.475 0.99 5 2 C5 4.64 5 7.28 5 10 C4.34 10 3.68 10 3 10 C2.896875 8.88625 2.79375 7.7725 2.6875 6.625 C2.460625 5.42875 2.23375 4.2325 2 3 C1.01 2.34 0.02 1.68 -1 1 C-0.67 0.67 -0.34 0.34 0 0 Z " fill="#B21B22" transform="translate(121,56)"/>
<path d="M0 0 C2.64 0 5.28 0 8 0 C8.125 2.875 8.125 2.875 8 6 C7.34 6.66 6.68 7.32 6 8 C6 6.35 6 4.7 6 3 C3.03 2.505 3.03 2.505 0 2 C0 1.34 0 0.68 0 0 Z " fill="#EFA199" transform="translate(94,58)"/>
<path d="M0 0 C0.99 0.33 1.98 0.66 3 1 C3 2.65 3 4.3 3 6 C1.68 6 0.36 6 -1 6 C-1.042721 4.33388095 -1.04063832 2.66617115 -1 1 C-0.67 0.67 -0.34 0.34 0 0 Z " fill="#FDD0CF" transform="translate(38,58)"/>
<path d="M0 0 C2.31 0.33 4.62 0.66 7 1 C6.67 3.64 6.34 6.28 6 9 C5.67 9 5.34 9 5 9 C4.67 7.02 4.34 5.04 4 3 C2.02 3 0.04 3 -2 3 C-1.34 2.01 -0.68 1.02 0 0 Z " fill="#B34345" transform="translate(36,55)"/>
<path d="M0 0 C0.33 0 0.66 0 1 0 C1.33 2.97 1.66 5.94 2 9 C1.01 9 0.02 9 -1 9 C-1.09765625 2.84765625 -1.09765625 2.84765625 -1 1 C-0.67 0.67 -0.34 0.34 0 0 Z " fill="#B21D19" transform="translate(22,58)"/>
<path d="M0 0 C1.65 0.33 3.3 0.66 5 1 C5 2.32 5 3.64 5 5 C2.69 5 0.38 5 -2 5 C-0.68 4.67 0.64 4.34 2 4 C1.34 2.68 0.68 1.36 0 0 Z " fill="#A52427" transform="translate(75,57)"/>
<path d="M0 0 C0.66 0.33 1.32 0.66 2 1 C2 1.99 2 2.98 2 4 C1.34 4 0.68 4 0 4 C0 4.66 0 5.32 0 6 C-2.64 6 -5.28 6 -8 6 C-8 5.67 -8 5.34 -8 5 C-6.8553125 4.87625 -6.8553125 4.87625 -5.6875 4.75 C-2.47626739 3.85384206 -1.70625501 2.78388975 0 0 Z " fill="#FBF5F0" transform="translate(44,49)"/>
<path d="M0 0 C1.4606285 2.64738916 2 3.89448334 2 7 C1 8 1 8 -2.0625 8.0625 C-3.031875 8.041875 -4.00125 8.02125 -5 8 C-4.0409375 7.690625 -4.0409375 7.690625 -3.0625 7.375 C-0.65074923 6.10461791 -0.65074923 6.10461791 -0.25 2.875 C-0.1675 1.92625 -0.085 0.9775 0 0 Z " fill="#B64442" transform="translate(110,60)"/>
<path d="M0 0 C2.64 0 5.28 0 8 0 C8 0.66 8 1.32 8 2 C5.69 2.33 3.38 2.66 1 3 C0.67 2.01 0.34 1.02 0 0 Z " fill="#ED9794" transform="translate(72,62)"/>
<path d="M0 0 C2.875 0.3125 2.875 0.3125 6 1 C6.66 1.99 7.32 2.98 8 4 C6.02 4 4.04 4 2 4 C1.34 2.68 0.68 1.36 0 0 Z " fill="#B1494F" transform="translate(90,64)"/>
<path d="M0 0 C0.99 0.33 1.98 0.66 3 1 C2.67 2.98 2.34 4.96 2 7 C1.34 7 0.68 7 0 7 C0 4.69 0 2.38 0 0 Z " fill="#B12222" transform="translate(42,57)"/>
<path d="M0 0 C1.32 1.32 2.64 2.64 4 4 C1.625 4.625 1.625 4.625 -1 5 C-1.66 4.34 -2.32 3.68 -3 3 C-2.01 2.01 -1.02 1.02 0 0 Z " fill="#F9D8D1" transform="translate(101,64)"/>
</svg>
